<mxfile host="app.diagrams.net" modified="2023-09-25T10:24:16.704Z" agent="Mozilla/5.0 (X11; Ubuntu; Linux x86_64; rv:109.0) Gecko/20100101 Firefox/117.0" etag="pSSV1tY81xFSrOSPhLXr" version="21.8.2" type="github">
  <diagram name="Page-1" id="c5zftQqzD3zsDb2I6Wu0">
    <mxGraphModel dx="2270" dy="1325" grid="1" gridSize="10" guides="1" tooltips="1" connect="1" arrows="1" fold="1" page="1" pageScale="1" pageWidth="850" pageHeight="1100" math="0" shadow="0">
      <root>
        <mxCell id="0" />
        <mxCell id="1" parent="0" />
        <mxCell id="VoKVurm5gyyOJxLy-Uc7-3" value="" style="rounded=1;whiteSpace=wrap;html=1;" vertex="1" parent="1">
          <mxGeometry x="200" y="40" width="80" height="40" as="geometry" />
        </mxCell>
        <mxCell id="VoKVurm5gyyOJxLy-Uc7-4" value="" style="rounded=1;whiteSpace=wrap;html=1;" vertex="1" parent="1">
          <mxGeometry x="200" y="100" width="80" height="40" as="geometry" />
        </mxCell>
        <mxCell id="VoKVurm5gyyOJxLy-Uc7-5" value="" style="rounded=1;whiteSpace=wrap;html=1;" vertex="1" parent="1">
          <mxGeometry x="200" y="160" width="80" height="40" as="geometry" />
        </mxCell>
        <mxCell id="VoKVurm5gyyOJxLy-Uc7-6" value="" style="rounded=1;whiteSpace=wrap;html=1;" vertex="1" parent="1">
          <mxGeometry x="200" y="220" width="80" height="40" as="geometry" />
        </mxCell>
        <mxCell id="VoKVurm5gyyOJxLy-Uc7-7" value="" style="rounded=1;whiteSpace=wrap;html=1;" vertex="1" parent="1">
          <mxGeometry x="300" y="40" width="80" height="40" as="geometry" />
        </mxCell>
        <mxCell id="VoKVurm5gyyOJxLy-Uc7-8" value="" style="rounded=1;whiteSpace=wrap;html=1;" vertex="1" parent="1">
          <mxGeometry x="300" y="100" width="80" height="40" as="geometry" />
        </mxCell>
        <mxCell id="VoKVurm5gyyOJxLy-Uc7-9" value="" style="rounded=1;whiteSpace=wrap;html=1;" vertex="1" parent="1">
          <mxGeometry x="300" y="160" width="80" height="40" as="geometry" />
        </mxCell>
        <mxCell id="VoKVurm5gyyOJxLy-Uc7-10" value="" style="rounded=1;whiteSpace=wrap;html=1;" vertex="1" parent="1">
          <mxGeometry x="300" y="220" width="80" height="40" as="geometry" />
        </mxCell>
        <mxCell id="VoKVurm5gyyOJxLy-Uc7-11" value="" style="rounded=1;whiteSpace=wrap;html=1;" vertex="1" parent="1">
          <mxGeometry x="300" y="300" width="80" height="40" as="geometry" />
        </mxCell>
        <mxCell id="VoKVurm5gyyOJxLy-Uc7-14" value="" style="rounded=1;whiteSpace=wrap;html=1;" vertex="1" parent="1">
          <mxGeometry x="300" y="440" width="80" height="40" as="geometry" />
        </mxCell>
        <mxCell id="VoKVurm5gyyOJxLy-Uc7-15" value="" style="rounded=1;whiteSpace=wrap;html=1;" vertex="1" parent="1">
          <mxGeometry x="20" y="300" width="80" height="40" as="geometry" />
        </mxCell>
        <mxCell id="VoKVurm5gyyOJxLy-Uc7-16" value="" style="rounded=1;whiteSpace=wrap;html=1;" vertex="1" parent="1">
          <mxGeometry x="20" y="440" width="80" height="40" as="geometry" />
        </mxCell>
        <mxCell id="VoKVurm5gyyOJxLy-Uc7-17" value="" style="rounded=1;whiteSpace=wrap;html=1;" vertex="1" parent="1">
          <mxGeometry x="20" y="600" width="80" height="40" as="geometry" />
        </mxCell>
        <mxCell id="VoKVurm5gyyOJxLy-Uc7-18" value="" style="rounded=1;whiteSpace=wrap;html=1;" vertex="1" parent="1">
          <mxGeometry x="20" y="660" width="80" height="40" as="geometry" />
        </mxCell>
        <mxCell id="VoKVurm5gyyOJxLy-Uc7-19" value="" style="rounded=1;whiteSpace=wrap;html=1;" vertex="1" parent="1">
          <mxGeometry x="89" y="800" width="80" height="40" as="geometry" />
        </mxCell>
        <mxCell id="VoKVurm5gyyOJxLy-Uc7-20" value="" style="rounded=1;whiteSpace=wrap;html=1;" vertex="1" parent="1">
          <mxGeometry x="89" y="860" width="80" height="40" as="geometry" />
        </mxCell>
        <mxCell id="VoKVurm5gyyOJxLy-Uc7-21" value="" style="rounded=1;whiteSpace=wrap;html=1;" vertex="1" parent="1">
          <mxGeometry x="160" y="560" width="80" height="40" as="geometry" />
        </mxCell>
        <mxCell id="VoKVurm5gyyOJxLy-Uc7-22" value="" style="rounded=1;whiteSpace=wrap;html=1;" vertex="1" parent="1">
          <mxGeometry x="160" y="620" width="80" height="40" as="geometry" />
        </mxCell>
        <mxCell id="VoKVurm5gyyOJxLy-Uc7-23" value="" style="rounded=1;whiteSpace=wrap;html=1;" vertex="1" parent="1">
          <mxGeometry x="160" y="680" width="80" height="40" as="geometry" />
        </mxCell>
        <mxCell id="VoKVurm5gyyOJxLy-Uc7-24" value="" style="rounded=1;whiteSpace=wrap;html=1;" vertex="1" parent="1">
          <mxGeometry x="280" y="560" width="80" height="40" as="geometry" />
        </mxCell>
        <mxCell id="VoKVurm5gyyOJxLy-Uc7-25" value="" style="rounded=1;whiteSpace=wrap;html=1;" vertex="1" parent="1">
          <mxGeometry x="280" y="620" width="80" height="40" as="geometry" />
        </mxCell>
        <mxCell id="VoKVurm5gyyOJxLy-Uc7-26" value="" style="rounded=1;whiteSpace=wrap;html=1;" vertex="1" parent="1">
          <mxGeometry x="280" y="680" width="80" height="40" as="geometry" />
        </mxCell>
        <mxCell id="VoKVurm5gyyOJxLy-Uc7-27" value="" style="rounded=1;whiteSpace=wrap;html=1;" vertex="1" parent="1">
          <mxGeometry x="280" y="760" width="80" height="40" as="geometry" />
        </mxCell>
        <mxCell id="VoKVurm5gyyOJxLy-Uc7-28" value="" style="rounded=1;whiteSpace=wrap;html=1;" vertex="1" parent="1">
          <mxGeometry x="280" y="820" width="80" height="40" as="geometry" />
        </mxCell>
        <mxCell id="VoKVurm5gyyOJxLy-Uc7-29" value="" style="rounded=1;whiteSpace=wrap;html=1;" vertex="1" parent="1">
          <mxGeometry x="280" y="880" width="80" height="40" as="geometry" />
        </mxCell>
        <mxCell id="VoKVurm5gyyOJxLy-Uc7-30" value="" style="rounded=1;whiteSpace=wrap;html=1;" vertex="1" parent="1">
          <mxGeometry x="280" y="940" width="80" height="40" as="geometry" />
        </mxCell>
        <mxCell id="VoKVurm5gyyOJxLy-Uc7-31" value="" style="rounded=1;whiteSpace=wrap;html=1;" vertex="1" parent="1">
          <mxGeometry x="760" y="40" width="80" height="40" as="geometry" />
        </mxCell>
        <mxCell id="VoKVurm5gyyOJxLy-Uc7-32" value="" style="rounded=1;whiteSpace=wrap;html=1;" vertex="1" parent="1">
          <mxGeometry x="760" y="100" width="80" height="40" as="geometry" />
        </mxCell>
        <mxCell id="VoKVurm5gyyOJxLy-Uc7-33" value="" style="rounded=1;whiteSpace=wrap;html=1;" vertex="1" parent="1">
          <mxGeometry x="760" y="160" width="80" height="40" as="geometry" />
        </mxCell>
        <mxCell id="VoKVurm5gyyOJxLy-Uc7-34" value="" style="rounded=1;whiteSpace=wrap;html=1;" vertex="1" parent="1">
          <mxGeometry x="760" y="220" width="80" height="40" as="geometry" />
        </mxCell>
        <mxCell id="VoKVurm5gyyOJxLy-Uc7-35" value="" style="rounded=1;whiteSpace=wrap;html=1;" vertex="1" parent="1">
          <mxGeometry x="760" y="280" width="80" height="40" as="geometry" />
        </mxCell>
        <mxCell id="VoKVurm5gyyOJxLy-Uc7-36" value="" style="rounded=1;whiteSpace=wrap;html=1;" vertex="1" parent="1">
          <mxGeometry x="760" y="340" width="80" height="40" as="geometry" />
        </mxCell>
        <mxCell id="VoKVurm5gyyOJxLy-Uc7-37" value="" style="rounded=1;whiteSpace=wrap;html=1;" vertex="1" parent="1">
          <mxGeometry x="760" y="400" width="80" height="40" as="geometry" />
        </mxCell>
        <mxCell id="VoKVurm5gyyOJxLy-Uc7-38" value="" style="rounded=1;whiteSpace=wrap;html=1;" vertex="1" parent="1">
          <mxGeometry x="760" y="460" width="80" height="40" as="geometry" />
        </mxCell>
        <mxCell id="VoKVurm5gyyOJxLy-Uc7-39" value="" style="rounded=1;whiteSpace=wrap;html=1;" vertex="1" parent="1">
          <mxGeometry x="760" y="520" width="80" height="40" as="geometry" />
        </mxCell>
        <mxCell id="VoKVurm5gyyOJxLy-Uc7-40" value="" style="rounded=1;whiteSpace=wrap;html=1;" vertex="1" parent="1">
          <mxGeometry x="760" y="580" width="80" height="40" as="geometry" />
        </mxCell>
        <mxCell id="VoKVurm5gyyOJxLy-Uc7-43" value="" style="rounded=1;whiteSpace=wrap;html=1;" vertex="1" parent="1">
          <mxGeometry x="480" y="40" width="80" height="40" as="geometry" />
        </mxCell>
        <mxCell id="VoKVurm5gyyOJxLy-Uc7-44" value="" style="rounded=1;whiteSpace=wrap;html=1;" vertex="1" parent="1">
          <mxGeometry x="480" y="100" width="80" height="40" as="geometry" />
        </mxCell>
        <mxCell id="VoKVurm5gyyOJxLy-Uc7-45" value="" style="rounded=1;whiteSpace=wrap;html=1;" vertex="1" parent="1">
          <mxGeometry x="480" y="160" width="80" height="40" as="geometry" />
        </mxCell>
        <mxCell id="VoKVurm5gyyOJxLy-Uc7-46" value="" style="rounded=1;whiteSpace=wrap;html=1;" vertex="1" parent="1">
          <mxGeometry x="480" y="220" width="80" height="40" as="geometry" />
        </mxCell>
        <mxCell id="VoKVurm5gyyOJxLy-Uc7-47" value="" style="rounded=1;whiteSpace=wrap;html=1;" vertex="1" parent="1">
          <mxGeometry x="480" y="280" width="80" height="40" as="geometry" />
        </mxCell>
        <mxCell id="VoKVurm5gyyOJxLy-Uc7-48" value="" style="rounded=1;whiteSpace=wrap;html=1;" vertex="1" parent="1">
          <mxGeometry x="480" y="340" width="80" height="40" as="geometry" />
        </mxCell>
        <mxCell id="VoKVurm5gyyOJxLy-Uc7-49" value="" style="rounded=1;whiteSpace=wrap;html=1;" vertex="1" parent="1">
          <mxGeometry x="480" y="400" width="80" height="40" as="geometry" />
        </mxCell>
        <mxCell id="VoKVurm5gyyOJxLy-Uc7-50" value="" style="rounded=1;whiteSpace=wrap;html=1;" vertex="1" parent="1">
          <mxGeometry x="480" y="460" width="80" height="40" as="geometry" />
        </mxCell>
        <mxCell id="VoKVurm5gyyOJxLy-Uc7-51" value="" style="rounded=1;whiteSpace=wrap;html=1;" vertex="1" parent="1">
          <mxGeometry x="480" y="520" width="80" height="40" as="geometry" />
        </mxCell>
        <mxCell id="VoKVurm5gyyOJxLy-Uc7-52" value="" style="rounded=1;whiteSpace=wrap;html=1;" vertex="1" parent="1">
          <mxGeometry x="480" y="580" width="80" height="40" as="geometry" />
        </mxCell>
        <mxCell id="VoKVurm5gyyOJxLy-Uc7-81" value="L_1" style="rhombus;whiteSpace=wrap;html=1;fillColor=#000000;fontColor=#FFFFFF;" vertex="1" parent="1">
          <mxGeometry x="280" y="760" width="40" height="40" as="geometry" />
        </mxCell>
        <mxCell id="VoKVurm5gyyOJxLy-Uc7-82" value="L_2" style="rhombus;whiteSpace=wrap;html=1;fillColor=#000000;fontColor=#ffffff;" vertex="1" parent="1">
          <mxGeometry x="280" y="820" width="40" height="40" as="geometry" />
        </mxCell>
        <mxCell id="VoKVurm5gyyOJxLy-Uc7-83" value="L_3" style="rhombus;whiteSpace=wrap;html=1;fillColor=#000000;fontColor=#ffffff;" vertex="1" parent="1">
          <mxGeometry x="280" y="880" width="40" height="40" as="geometry" />
        </mxCell>
        <mxCell id="VoKVurm5gyyOJxLy-Uc7-84" value="L_4" style="rhombus;whiteSpace=wrap;html=1;fillColor=#000000;fontColor=#ffffff;" vertex="1" parent="1">
          <mxGeometry x="280" y="940" width="40" height="40" as="geometry" />
        </mxCell>
        <mxCell id="VoKVurm5gyyOJxLy-Uc7-85" value="" style="rhombus;whiteSpace=wrap;html=1;fillColor=#000000;" vertex="1" parent="1">
          <mxGeometry x="129" y="800" width="40" height="40" as="geometry" />
        </mxCell>
        <mxCell id="VoKVurm5gyyOJxLy-Uc7-86" value="" style="rhombus;whiteSpace=wrap;html=1;fillColor=#000000;" vertex="1" parent="1">
          <mxGeometry x="129" y="860" width="40" height="40" as="geometry" />
        </mxCell>
        <mxCell id="VoKVurm5gyyOJxLy-Uc7-89" value="M_2" style="rhombus;whiteSpace=wrap;html=1;fillColor=#000000;fontColor=#FFFFFF;" vertex="1" parent="1">
          <mxGeometry x="280" y="680" width="40" height="40" as="geometry" />
        </mxCell>
        <mxCell id="VoKVurm5gyyOJxLy-Uc7-92" value="&lt;font color=&quot;#ffffff&quot;&gt;M_1&lt;/font&gt;" style="rhombus;whiteSpace=wrap;html=1;fillColor=#000000;" vertex="1" parent="1">
          <mxGeometry x="160" y="680" width="40" height="40" as="geometry" />
        </mxCell>
        <mxCell id="VoKVurm5gyyOJxLy-Uc7-93" value="" style="rhombus;whiteSpace=wrap;html=1;fillColor=#000000;" vertex="1" parent="1">
          <mxGeometry x="20" y="600" width="40" height="40" as="geometry" />
        </mxCell>
        <mxCell id="VoKVurm5gyyOJxLy-Uc7-94" value="" style="rhombus;whiteSpace=wrap;html=1;fillColor=#000000;" vertex="1" parent="1">
          <mxGeometry x="20" y="660" width="40" height="40" as="geometry" />
        </mxCell>
        <mxCell id="VoKVurm5gyyOJxLy-Uc7-95" value="&lt;font color=&quot;#ffffff&quot;&gt;GND&lt;/font&gt;" style="rhombus;whiteSpace=wrap;html=1;fillColor=#000000;" vertex="1" parent="1">
          <mxGeometry x="20" y="300" width="40" height="40" as="geometry" />
        </mxCell>
        <mxCell id="VoKVurm5gyyOJxLy-Uc7-96" value="&lt;font color=&quot;#ffffff&quot;&gt;5V&lt;/font&gt;" style="rhombus;whiteSpace=wrap;html=1;fillColor=#000000;" vertex="1" parent="1">
          <mxGeometry x="20" y="440" width="40" height="40" as="geometry" />
        </mxCell>
        <mxCell id="VoKVurm5gyyOJxLy-Uc7-97" value="9V" style="rhombus;whiteSpace=wrap;html=1;fillColor=#000000;fontColor=#ffffff;" vertex="1" parent="1">
          <mxGeometry x="300" y="300" width="40" height="40" as="geometry" />
        </mxCell>
        <mxCell id="VoKVurm5gyyOJxLy-Uc7-98" value="0V" style="rhombus;whiteSpace=wrap;html=1;fillColor=#000000;fontColor=#ffffff;" vertex="1" parent="1">
          <mxGeometry x="300" y="440" width="40" height="40" as="geometry" />
        </mxCell>
        <mxCell id="VoKVurm5gyyOJxLy-Uc7-99" value="" style="ellipse;whiteSpace=wrap;html=1;aspect=fixed;fillColor=#1ba1e2;strokeColor=#006EAF;fontColor=#ffffff;" vertex="1" parent="1">
          <mxGeometry x="89" y="802.5" width="35" height="35" as="geometry" />
        </mxCell>
        <mxCell id="VoKVurm5gyyOJxLy-Uc7-100" value="" style="ellipse;whiteSpace=wrap;html=1;aspect=fixed;fillColor=#1ba1e2;strokeColor=#006EAF;fontColor=#ffffff;" vertex="1" parent="1">
          <mxGeometry x="91" y="862" width="35" height="35" as="geometry" />
        </mxCell>
        <mxCell id="VoKVurm5gyyOJxLy-Uc7-148" value="" style="edgeStyle=orthogonalEdgeStyle;rounded=0;orthogonalLoop=1;jettySize=auto;html=1;endArrow=none;endFill=0;entryX=1;entryY=0.5;entryDx=0;entryDy=0;strokeWidth=3;fillColor=#e51400;strokeColor=#B20000;" edge="1" parent="1" source="VoKVurm5gyyOJxLy-Uc7-101" target="VoKVurm5gyyOJxLy-Uc7-11">
          <mxGeometry relative="1" as="geometry">
            <mxPoint x="82" y="505" as="targetPoint" />
            <Array as="points">
              <mxPoint x="82" y="510" />
              <mxPoint x="400" y="510" />
              <mxPoint x="400" y="320" />
            </Array>
          </mxGeometry>
        </mxCell>
        <mxCell id="VoKVurm5gyyOJxLy-Uc7-101" value="" style="ellipse;whiteSpace=wrap;html=1;aspect=fixed;fillColor=#1ba1e2;strokeColor=#006EAF;fontColor=#ffffff;" vertex="1" parent="1">
          <mxGeometry x="64" y="602.5" width="35" height="35" as="geometry" />
        </mxCell>
        <mxCell id="VoKVurm5gyyOJxLy-Uc7-102" value="" style="ellipse;whiteSpace=wrap;html=1;aspect=fixed;fillColor=#1ba1e2;strokeColor=#006EAF;fontColor=#ffffff;" vertex="1" parent="1">
          <mxGeometry x="63" y="663" width="35" height="35" as="geometry" />
        </mxCell>
        <mxCell id="VoKVurm5gyyOJxLy-Uc7-199" value="" style="edgeStyle=orthogonalEdgeStyle;rounded=0;orthogonalLoop=1;jettySize=auto;html=1;endArrow=none;endFill=0;strokeWidth=3;entryX=0;entryY=0.5;entryDx=0;entryDy=0;" edge="1" parent="1" source="VoKVurm5gyyOJxLy-Uc7-103" target="VoKVurm5gyyOJxLy-Uc7-140">
          <mxGeometry relative="1" as="geometry">
            <mxPoint x="195.5" y="460" as="targetPoint" />
            <Array as="points">
              <mxPoint x="260" y="460" />
              <mxPoint x="260" y="530" />
              <mxPoint x="380" y="530" />
              <mxPoint x="380" y="640" />
              <mxPoint x="710" y="640" />
              <mxPoint x="710" y="600" />
            </Array>
          </mxGeometry>
        </mxCell>
        <mxCell id="VoKVurm5gyyOJxLy-Uc7-103" value="" style="ellipse;whiteSpace=wrap;html=1;aspect=fixed;fillColor=#1ba1e2;strokeColor=#006EAF;fontColor=#ffffff;" vertex="1" parent="1">
          <mxGeometry x="63" y="442.5" width="35" height="35" as="geometry" />
        </mxCell>
        <mxCell id="VoKVurm5gyyOJxLy-Uc7-201" value="" style="edgeStyle=orthogonalEdgeStyle;rounded=0;orthogonalLoop=1;jettySize=auto;html=1;endArrow=none;endFill=0;strokeWidth=3;entryX=1;entryY=0.5;entryDx=0;entryDy=0;fillColor=#ffcccc;strokeColor=#3465a4;" edge="1" parent="1" source="VoKVurm5gyyOJxLy-Uc7-104" target="VoKVurm5gyyOJxLy-Uc7-131">
          <mxGeometry relative="1" as="geometry">
            <mxPoint x="195.5" y="320" as="targetPoint" />
            <Array as="points">
              <mxPoint x="160" y="320" />
              <mxPoint x="160" y="550" />
              <mxPoint x="250" y="550" />
              <mxPoint x="250" y="580" />
            </Array>
          </mxGeometry>
        </mxCell>
        <mxCell id="VoKVurm5gyyOJxLy-Uc7-104" value="" style="ellipse;whiteSpace=wrap;html=1;aspect=fixed;fillColor=#1ba1e2;strokeColor=#006EAF;fontColor=#ffffff;" vertex="1" parent="1">
          <mxGeometry x="63" y="302.5" width="35" height="35" as="geometry" />
        </mxCell>
        <mxCell id="VoKVurm5gyyOJxLy-Uc7-105" value="" style="ellipse;whiteSpace=wrap;html=1;aspect=fixed;fillColor=#1ba1e2;strokeColor=#006EAF;fontColor=#ffffff;" vertex="1" parent="1">
          <mxGeometry x="343" y="442.5" width="35" height="35" as="geometry" />
        </mxCell>
        <mxCell id="VoKVurm5gyyOJxLy-Uc7-106" value="" style="ellipse;whiteSpace=wrap;html=1;aspect=fixed;fillColor=#1ba1e2;strokeColor=#006EAF;fontColor=#ffffff;" vertex="1" parent="1">
          <mxGeometry x="343" y="302.5" width="35" height="35" as="geometry" />
        </mxCell>
        <mxCell id="VoKVurm5gyyOJxLy-Uc7-107" value="" style="ellipse;whiteSpace=wrap;html=1;aspect=fixed;fillColor=#1ba1e2;strokeColor=#006EAF;fontColor=#ffffff;" vertex="1" parent="1">
          <mxGeometry x="202" y="42.5" width="35" height="35" as="geometry" />
        </mxCell>
        <mxCell id="VoKVurm5gyyOJxLy-Uc7-108" value="" style="ellipse;whiteSpace=wrap;html=1;aspect=fixed;fillColor=#1ba1e2;strokeColor=#006EAF;fontColor=#ffffff;" vertex="1" parent="1">
          <mxGeometry x="202" y="102.5" width="35" height="35" as="geometry" />
        </mxCell>
        <mxCell id="VoKVurm5gyyOJxLy-Uc7-109" value="" style="ellipse;whiteSpace=wrap;html=1;aspect=fixed;fillColor=#1ba1e2;strokeColor=#006EAF;fontColor=#ffffff;" vertex="1" parent="1">
          <mxGeometry x="202" y="163" width="35" height="35" as="geometry" />
        </mxCell>
        <mxCell id="VoKVurm5gyyOJxLy-Uc7-110" value="" style="ellipse;whiteSpace=wrap;html=1;aspect=fixed;fillColor=#1ba1e2;strokeColor=#006EAF;fontColor=#ffffff;" vertex="1" parent="1">
          <mxGeometry x="202" y="223" width="35" height="35" as="geometry" />
        </mxCell>
        <mxCell id="VoKVurm5gyyOJxLy-Uc7-111" value="" style="ellipse;whiteSpace=wrap;html=1;aspect=fixed;fillColor=#1ba1e2;strokeColor=#006EAF;fontColor=#ffffff;" vertex="1" parent="1">
          <mxGeometry x="343" y="42.5" width="35" height="35" as="geometry" />
        </mxCell>
        <mxCell id="VoKVurm5gyyOJxLy-Uc7-112" value="" style="ellipse;whiteSpace=wrap;html=1;aspect=fixed;fillColor=#1ba1e2;strokeColor=#006EAF;fontColor=#ffffff;" vertex="1" parent="1">
          <mxGeometry x="343" y="102.5" width="35" height="35" as="geometry" />
        </mxCell>
        <mxCell id="VoKVurm5gyyOJxLy-Uc7-113" value="" style="ellipse;whiteSpace=wrap;html=1;aspect=fixed;fillColor=#1ba1e2;strokeColor=#006EAF;fontColor=#ffffff;" vertex="1" parent="1">
          <mxGeometry x="343" y="163" width="35" height="35" as="geometry" />
        </mxCell>
        <mxCell id="VoKVurm5gyyOJxLy-Uc7-114" value="" style="ellipse;whiteSpace=wrap;html=1;aspect=fixed;fillColor=#1ba1e2;strokeColor=#006EAF;fontColor=#ffffff;" vertex="1" parent="1">
          <mxGeometry x="343" y="223" width="35" height="35" as="geometry" />
        </mxCell>
        <mxCell id="VoKVurm5gyyOJxLy-Uc7-115" value="" style="ellipse;whiteSpace=wrap;html=1;aspect=fixed;fillColor=#1ba1e2;strokeColor=#006EAF;fontColor=#ffffff;" vertex="1" parent="1">
          <mxGeometry x="482" y="42.5" width="35" height="35" as="geometry" />
        </mxCell>
        <mxCell id="VoKVurm5gyyOJxLy-Uc7-116" value="" style="ellipse;whiteSpace=wrap;html=1;aspect=fixed;fillColor=#1ba1e2;strokeColor=#006EAF;fontColor=#ffffff;" vertex="1" parent="1">
          <mxGeometry x="482" y="102.5" width="35" height="35" as="geometry" />
        </mxCell>
        <mxCell id="VoKVurm5gyyOJxLy-Uc7-117" value="" style="ellipse;whiteSpace=wrap;html=1;aspect=fixed;fillColor=#1ba1e2;strokeColor=#006EAF;fontColor=#ffffff;" vertex="1" parent="1">
          <mxGeometry x="482" y="163" width="35" height="35" as="geometry" />
        </mxCell>
        <mxCell id="VoKVurm5gyyOJxLy-Uc7-118" value="" style="ellipse;whiteSpace=wrap;html=1;aspect=fixed;fillColor=#1ba1e2;strokeColor=#006EAF;fontColor=#ffffff;" vertex="1" parent="1">
          <mxGeometry x="482" y="223" width="35" height="35" as="geometry" />
        </mxCell>
        <mxCell id="VoKVurm5gyyOJxLy-Uc7-119" value="" style="ellipse;whiteSpace=wrap;html=1;aspect=fixed;fillColor=#1ba1e2;strokeColor=#006EAF;fontColor=#ffffff;" vertex="1" parent="1">
          <mxGeometry x="762" y="42.5" width="35" height="35" as="geometry" />
        </mxCell>
        <mxCell id="VoKVurm5gyyOJxLy-Uc7-120" value="" style="ellipse;whiteSpace=wrap;html=1;aspect=fixed;fillColor=#1ba1e2;strokeColor=#006EAF;fontColor=#ffffff;" vertex="1" parent="1">
          <mxGeometry x="762" y="102.5" width="35" height="35" as="geometry" />
        </mxCell>
        <mxCell id="VoKVurm5gyyOJxLy-Uc7-121" value="" style="ellipse;whiteSpace=wrap;html=1;aspect=fixed;fillColor=#1ba1e2;strokeColor=#006EAF;fontColor=#ffffff;" vertex="1" parent="1">
          <mxGeometry x="762" y="163" width="35" height="35" as="geometry" />
        </mxCell>
        <mxCell id="VoKVurm5gyyOJxLy-Uc7-122" value="" style="ellipse;whiteSpace=wrap;html=1;aspect=fixed;fillColor=#1ba1e2;strokeColor=#006EAF;fontColor=#ffffff;" vertex="1" parent="1">
          <mxGeometry x="762" y="223" width="35" height="35" as="geometry" />
        </mxCell>
        <mxCell id="VoKVurm5gyyOJxLy-Uc7-123" value="" style="ellipse;whiteSpace=wrap;html=1;aspect=fixed;fillColor=#1ba1e2;strokeColor=#006EAF;fontColor=#ffffff;" vertex="1" parent="1">
          <mxGeometry x="482" y="282" width="35" height="35" as="geometry" />
        </mxCell>
        <mxCell id="VoKVurm5gyyOJxLy-Uc7-124" value="" style="ellipse;whiteSpace=wrap;html=1;aspect=fixed;fillColor=#1ba1e2;strokeColor=#006EAF;fontColor=#ffffff;" vertex="1" parent="1">
          <mxGeometry x="482" y="342" width="35" height="35" as="geometry" />
        </mxCell>
        <mxCell id="VoKVurm5gyyOJxLy-Uc7-125" value="" style="ellipse;whiteSpace=wrap;html=1;aspect=fixed;fillColor=#1ba1e2;strokeColor=#006EAF;fontColor=#ffffff;" vertex="1" parent="1">
          <mxGeometry x="482" y="402.5" width="35" height="35" as="geometry" />
        </mxCell>
        <mxCell id="VoKVurm5gyyOJxLy-Uc7-126" value="" style="ellipse;whiteSpace=wrap;html=1;aspect=fixed;fillColor=#1ba1e2;strokeColor=#006EAF;fontColor=#ffffff;" vertex="1" parent="1">
          <mxGeometry x="482" y="462.5" width="35" height="35" as="geometry" />
        </mxCell>
        <mxCell id="VoKVurm5gyyOJxLy-Uc7-127" value="" style="ellipse;whiteSpace=wrap;html=1;aspect=fixed;fillColor=#1ba1e2;strokeColor=#006EAF;fontColor=#ffffff;" vertex="1" parent="1">
          <mxGeometry x="762" y="283" width="35" height="35" as="geometry" />
        </mxCell>
        <mxCell id="VoKVurm5gyyOJxLy-Uc7-128" value="" style="ellipse;whiteSpace=wrap;html=1;aspect=fixed;fillColor=#1ba1e2;strokeColor=#006EAF;fontColor=#ffffff;" vertex="1" parent="1">
          <mxGeometry x="762" y="343" width="35" height="35" as="geometry" />
        </mxCell>
        <mxCell id="VoKVurm5gyyOJxLy-Uc7-129" value="" style="ellipse;whiteSpace=wrap;html=1;aspect=fixed;fillColor=#1ba1e2;strokeColor=#006EAF;fontColor=#ffffff;" vertex="1" parent="1">
          <mxGeometry x="762" y="403.5" width="35" height="35" as="geometry" />
        </mxCell>
        <mxCell id="VoKVurm5gyyOJxLy-Uc7-130" value="" style="ellipse;whiteSpace=wrap;html=1;aspect=fixed;fillColor=#1ba1e2;strokeColor=#006EAF;fontColor=#ffffff;" vertex="1" parent="1">
          <mxGeometry x="762" y="463.5" width="35" height="35" as="geometry" />
        </mxCell>
        <mxCell id="VoKVurm5gyyOJxLy-Uc7-131" value="" style="ellipse;whiteSpace=wrap;html=1;aspect=fixed;fillColor=#1ba1e2;strokeColor=#006EAF;fontColor=#ffffff;" vertex="1" parent="1">
          <mxGeometry x="203" y="562.5" width="35" height="35" as="geometry" />
        </mxCell>
        <mxCell id="VoKVurm5gyyOJxLy-Uc7-132" value="" style="ellipse;whiteSpace=wrap;html=1;aspect=fixed;fillColor=#1ba1e2;strokeColor=#006EAF;fontColor=#ffffff;" vertex="1" parent="1">
          <mxGeometry x="203" y="623" width="35" height="35" as="geometry" />
        </mxCell>
        <mxCell id="VoKVurm5gyyOJxLy-Uc7-133" value="" style="ellipse;whiteSpace=wrap;html=1;aspect=fixed;fillColor=#1ba1e2;strokeColor=#006EAF;fontColor=#ffffff;" vertex="1" parent="1">
          <mxGeometry x="203" y="683" width="35" height="35" as="geometry" />
        </mxCell>
        <mxCell id="VoKVurm5gyyOJxLy-Uc7-206" value="" style="edgeStyle=orthogonalEdgeStyle;rounded=0;orthogonalLoop=1;jettySize=auto;html=1;endArrow=none;endFill=0;strokeWidth=3;exitX=1;exitY=0.5;exitDx=0;exitDy=0;strokeColor=#3465a4;" edge="1" parent="1" source="VoKVurm5gyyOJxLy-Uc7-134">
          <mxGeometry relative="1" as="geometry">
            <mxPoint x="360" y="580" as="sourcePoint" />
            <mxPoint x="250" y="550" as="targetPoint" />
            <Array as="points">
              <mxPoint x="370" y="580" />
              <mxPoint x="370" y="550" />
            </Array>
          </mxGeometry>
        </mxCell>
        <mxCell id="VoKVurm5gyyOJxLy-Uc7-134" value="" style="ellipse;whiteSpace=wrap;html=1;aspect=fixed;fillColor=#1ba1e2;strokeColor=#006EAF;fontColor=#ffffff;" vertex="1" parent="1">
          <mxGeometry x="322.5" y="562.5" width="35" height="35" as="geometry" />
        </mxCell>
        <mxCell id="VoKVurm5gyyOJxLy-Uc7-135" value="" style="ellipse;whiteSpace=wrap;html=1;aspect=fixed;fillColor=#1ba1e2;strokeColor=#006EAF;fontColor=#ffffff;" vertex="1" parent="1">
          <mxGeometry x="322.5" y="623" width="35" height="35" as="geometry" />
        </mxCell>
        <mxCell id="VoKVurm5gyyOJxLy-Uc7-136" value="" style="ellipse;whiteSpace=wrap;html=1;aspect=fixed;fillColor=#1ba1e2;strokeColor=#006EAF;fontColor=#ffffff;" vertex="1" parent="1">
          <mxGeometry x="322.5" y="683" width="35" height="35" as="geometry" />
        </mxCell>
        <mxCell id="VoKVurm5gyyOJxLy-Uc7-137" value="" style="ellipse;whiteSpace=wrap;html=1;aspect=fixed;fillColor=#1ba1e2;strokeColor=#006EAF;fontColor=#ffffff;" vertex="1" parent="1">
          <mxGeometry x="482" y="523" width="35" height="35" as="geometry" />
        </mxCell>
        <mxCell id="VoKVurm5gyyOJxLy-Uc7-138" value="" style="ellipse;whiteSpace=wrap;html=1;aspect=fixed;fillColor=#1ba1e2;strokeColor=#006EAF;fontColor=#ffffff;" vertex="1" parent="1">
          <mxGeometry x="482" y="583" width="35" height="35" as="geometry" />
        </mxCell>
        <mxCell id="VoKVurm5gyyOJxLy-Uc7-139" value="" style="ellipse;whiteSpace=wrap;html=1;aspect=fixed;fillColor=#1ba1e2;strokeColor=#006EAF;fontColor=#ffffff;" vertex="1" parent="1">
          <mxGeometry x="762" y="522" width="35" height="35" as="geometry" />
        </mxCell>
        <mxCell id="VoKVurm5gyyOJxLy-Uc7-140" value="" style="ellipse;whiteSpace=wrap;html=1;aspect=fixed;fillColor=#1ba1e2;strokeColor=#006EAF;fontColor=#ffffff;" vertex="1" parent="1">
          <mxGeometry x="762" y="582" width="35" height="35" as="geometry" />
        </mxCell>
        <mxCell id="VoKVurm5gyyOJxLy-Uc7-141" value="" style="ellipse;whiteSpace=wrap;html=1;aspect=fixed;fillColor=#1ba1e2;strokeColor=#006EAF;fontColor=#ffffff;" vertex="1" parent="1">
          <mxGeometry x="323" y="762.5" width="35" height="35" as="geometry" />
        </mxCell>
        <mxCell id="VoKVurm5gyyOJxLy-Uc7-142" value="" style="ellipse;whiteSpace=wrap;html=1;aspect=fixed;fillColor=#1ba1e2;strokeColor=#006EAF;fontColor=#ffffff;" vertex="1" parent="1">
          <mxGeometry x="323" y="822.5" width="35" height="35" as="geometry" />
        </mxCell>
        <mxCell id="VoKVurm5gyyOJxLy-Uc7-143" value="" style="ellipse;whiteSpace=wrap;html=1;aspect=fixed;fillColor=#1ba1e2;strokeColor=#006EAF;fontColor=#ffffff;" vertex="1" parent="1">
          <mxGeometry x="323" y="883" width="35" height="35" as="geometry" />
        </mxCell>
        <mxCell id="VoKVurm5gyyOJxLy-Uc7-144" value="" style="ellipse;whiteSpace=wrap;html=1;aspect=fixed;fillColor=#1ba1e2;strokeColor=#006EAF;fontColor=#ffffff;" vertex="1" parent="1">
          <mxGeometry x="323" y="943" width="35" height="35" as="geometry" />
        </mxCell>
        <mxCell id="VoKVurm5gyyOJxLy-Uc7-145" value="" style="endArrow=none;html=1;rounded=0;exitX=0;exitY=0.5;exitDx=0;exitDy=0;entryX=1;entryY=0.5;entryDx=0;entryDy=0;edgeStyle=orthogonalEdgeStyle;strokeWidth=3;" edge="1" parent="1" source="VoKVurm5gyyOJxLy-Uc7-99" target="VoKVurm5gyyOJxLy-Uc7-105">
          <mxGeometry width="50" height="50" relative="1" as="geometry">
            <mxPoint x="140" y="710" as="sourcePoint" />
            <mxPoint x="60" y="740" as="targetPoint" />
            <Array as="points">
              <mxPoint x="60" y="820" />
              <mxPoint x="60" y="720" />
              <mxPoint x="120" y="720" />
              <mxPoint x="120" y="490" />
              <mxPoint x="390" y="490" />
              <mxPoint x="390" y="460" />
            </Array>
          </mxGeometry>
        </mxCell>
        <mxCell id="VoKVurm5gyyOJxLy-Uc7-146" value="" style="endArrow=none;html=1;rounded=0;exitX=-0.003;exitY=0.517;exitDx=0;exitDy=0;exitPerimeter=0;entryX=0.5;entryY=1;entryDx=0;entryDy=0;edgeStyle=orthogonalEdgeStyle;strokeWidth=3;fillColor=#e51400;strokeColor=#B20000;" edge="1" parent="1" source="VoKVurm5gyyOJxLy-Uc7-100" target="VoKVurm5gyyOJxLy-Uc7-102">
          <mxGeometry width="50" height="50" relative="1" as="geometry">
            <mxPoint x="150" y="790" as="sourcePoint" />
            <mxPoint x="200" y="740" as="targetPoint" />
          </mxGeometry>
        </mxCell>
        <mxCell id="VoKVurm5gyyOJxLy-Uc7-149" value="" style="rounded=1;whiteSpace=wrap;html=1;" vertex="1" parent="1">
          <mxGeometry x="400" y="760" width="80" height="40" as="geometry" />
        </mxCell>
        <mxCell id="VoKVurm5gyyOJxLy-Uc7-150" value="" style="rounded=1;whiteSpace=wrap;html=1;" vertex="1" parent="1">
          <mxGeometry x="400" y="820" width="80" height="40" as="geometry" />
        </mxCell>
        <mxCell id="VoKVurm5gyyOJxLy-Uc7-151" value="" style="rounded=1;whiteSpace=wrap;html=1;" vertex="1" parent="1">
          <mxGeometry x="400" y="880" width="80" height="40" as="geometry" />
        </mxCell>
        <mxCell id="VoKVurm5gyyOJxLy-Uc7-152" value="" style="rounded=1;whiteSpace=wrap;html=1;" vertex="1" parent="1">
          <mxGeometry x="400" y="940" width="80" height="40" as="geometry" />
        </mxCell>
        <mxCell id="VoKVurm5gyyOJxLy-Uc7-157" value="" style="ellipse;whiteSpace=wrap;html=1;aspect=fixed;fillColor=#1ba1e2;strokeColor=#006EAF;fontColor=#ffffff;" vertex="1" parent="1">
          <mxGeometry x="443" y="762.5" width="35" height="35" as="geometry" />
        </mxCell>
        <mxCell id="VoKVurm5gyyOJxLy-Uc7-158" value="" style="ellipse;whiteSpace=wrap;html=1;aspect=fixed;fillColor=#1ba1e2;strokeColor=#006EAF;fontColor=#ffffff;" vertex="1" parent="1">
          <mxGeometry x="443" y="822.5" width="35" height="35" as="geometry" />
        </mxCell>
        <mxCell id="VoKVurm5gyyOJxLy-Uc7-159" value="" style="ellipse;whiteSpace=wrap;html=1;aspect=fixed;fillColor=#1ba1e2;strokeColor=#006EAF;fontColor=#ffffff;" vertex="1" parent="1">
          <mxGeometry x="443" y="883" width="35" height="35" as="geometry" />
        </mxCell>
        <mxCell id="VoKVurm5gyyOJxLy-Uc7-160" value="" style="ellipse;whiteSpace=wrap;html=1;aspect=fixed;fillColor=#1ba1e2;strokeColor=#006EAF;fontColor=#ffffff;" vertex="1" parent="1">
          <mxGeometry x="443" y="943" width="35" height="35" as="geometry" />
        </mxCell>
        <mxCell id="VoKVurm5gyyOJxLy-Uc7-161" value="&lt;font color=&quot;#ffffff&quot;&gt;GND&lt;/font&gt;" style="rhombus;whiteSpace=wrap;html=1;fillColor=#000000;" vertex="1" parent="1">
          <mxGeometry x="160" y="560" width="40" height="40" as="geometry" />
        </mxCell>
        <mxCell id="VoKVurm5gyyOJxLy-Uc7-162" value="&lt;font color=&quot;#ffffff&quot;&gt;5V&lt;/font&gt;" style="rhombus;whiteSpace=wrap;html=1;fillColor=#000000;" vertex="1" parent="1">
          <mxGeometry x="160" y="620" width="40" height="40" as="geometry" />
        </mxCell>
        <mxCell id="VoKVurm5gyyOJxLy-Uc7-163" value="&lt;font color=&quot;#ffffff&quot;&gt;GND&lt;/font&gt;" style="rhombus;whiteSpace=wrap;html=1;fillColor=#000000;" vertex="1" parent="1">
          <mxGeometry x="280" y="560" width="40" height="40" as="geometry" />
        </mxCell>
        <mxCell id="VoKVurm5gyyOJxLy-Uc7-164" value="&lt;font color=&quot;#ffffff&quot;&gt;5V&lt;/font&gt;" style="rhombus;whiteSpace=wrap;html=1;fillColor=#000000;" vertex="1" parent="1">
          <mxGeometry x="280" y="620" width="40" height="40" as="geometry" />
        </mxCell>
        <mxCell id="VoKVurm5gyyOJxLy-Uc7-165" value="GND" style="rhombus;whiteSpace=wrap;html=1;fillColor=#000000;fontColor=#FFFFFF;" vertex="1" parent="1">
          <mxGeometry x="400" y="760" width="40" height="40" as="geometry" />
        </mxCell>
        <mxCell id="VoKVurm5gyyOJxLy-Uc7-166" value="GND" style="rhombus;whiteSpace=wrap;html=1;fillColor=#000000;fontColor=#ffffff;" vertex="1" parent="1">
          <mxGeometry x="400" y="820" width="40" height="40" as="geometry" />
        </mxCell>
        <mxCell id="VoKVurm5gyyOJxLy-Uc7-167" value="GND" style="rhombus;whiteSpace=wrap;html=1;fillColor=#000000;fontColor=#ffffff;" vertex="1" parent="1">
          <mxGeometry x="400" y="880" width="40" height="40" as="geometry" />
        </mxCell>
        <mxCell id="VoKVurm5gyyOJxLy-Uc7-168" value="GND" style="rhombus;whiteSpace=wrap;html=1;fillColor=#000000;fontColor=#ffffff;" vertex="1" parent="1">
          <mxGeometry x="400" y="940" width="40" height="40" as="geometry" />
        </mxCell>
        <mxCell id="VoKVurm5gyyOJxLy-Uc7-170" value="3.3V" style="rhombus;whiteSpace=wrap;html=1;fillColor=#000000;fontColor=#FFFFFF;" vertex="1" parent="1">
          <mxGeometry x="520" y="40" width="40" height="40" as="geometry" />
        </mxCell>
        <mxCell id="VoKVurm5gyyOJxLy-Uc7-171" value="F0" style="rhombus;whiteSpace=wrap;html=1;fillColor=#000000;fontColor=#ffffff;" vertex="1" parent="1">
          <mxGeometry x="520" y="100" width="40" height="40" as="geometry" />
        </mxCell>
        <mxCell id="VoKVurm5gyyOJxLy-Uc7-172" value="F1" style="rhombus;whiteSpace=wrap;html=1;fillColor=#000000;fontColor=#ffffff;" vertex="1" parent="1">
          <mxGeometry x="520" y="160" width="40" height="40" as="geometry" />
        </mxCell>
        <mxCell id="VoKVurm5gyyOJxLy-Uc7-173" value="RST" style="rhombus;whiteSpace=wrap;html=1;fillColor=#000000;fontColor=#ffffff;" vertex="1" parent="1">
          <mxGeometry x="520" y="220" width="40" height="40" as="geometry" />
        </mxCell>
        <mxCell id="VoKVurm5gyyOJxLy-Uc7-174" value="A0" style="rhombus;whiteSpace=wrap;html=1;fillColor=#000000;fontColor=#FFFFFF;" vertex="1" parent="1">
          <mxGeometry x="520" y="280" width="40" height="40" as="geometry" />
        </mxCell>
        <mxCell id="VoKVurm5gyyOJxLy-Uc7-175" value="A1" style="rhombus;whiteSpace=wrap;html=1;fillColor=#000000;fontColor=#ffffff;" vertex="1" parent="1">
          <mxGeometry x="520" y="340" width="40" height="40" as="geometry" />
        </mxCell>
        <mxCell id="VoKVurm5gyyOJxLy-Uc7-176" value="A2" style="rhombus;whiteSpace=wrap;html=1;fillColor=#000000;fontColor=#ffffff;" vertex="1" parent="1">
          <mxGeometry x="520" y="400" width="40" height="40" as="geometry" />
        </mxCell>
        <mxCell id="VoKVurm5gyyOJxLy-Uc7-177" value="A3" style="rhombus;whiteSpace=wrap;html=1;fillColor=#000000;fontColor=#ffffff;" vertex="1" parent="1">
          <mxGeometry x="520" y="460" width="40" height="40" as="geometry" />
        </mxCell>
        <mxCell id="VoKVurm5gyyOJxLy-Uc7-178" value="3.3V" style="rhombus;whiteSpace=wrap;html=1;fillColor=#000000;fontColor=#FFFFFF;" vertex="1" parent="1">
          <mxGeometry x="800" y="40" width="40" height="40" as="geometry" />
        </mxCell>
        <mxCell id="VoKVurm5gyyOJxLy-Uc7-179" value="A14" style="rhombus;whiteSpace=wrap;html=1;fillColor=#000000;fontColor=#ffffff;" vertex="1" parent="1">
          <mxGeometry x="800" y="100" width="40" height="40" as="geometry" />
        </mxCell>
        <mxCell id="VoKVurm5gyyOJxLy-Uc7-180" value="A13" style="rhombus;whiteSpace=wrap;html=1;fillColor=#000000;fontColor=#ffffff;" vertex="1" parent="1">
          <mxGeometry x="800" y="160" width="40" height="40" as="geometry" />
        </mxCell>
        <mxCell id="VoKVurm5gyyOJxLy-Uc7-181" value="A10" style="rhombus;whiteSpace=wrap;html=1;fillColor=#000000;fontColor=#ffffff;" vertex="1" parent="1">
          <mxGeometry x="800" y="220" width="40" height="40" as="geometry" />
        </mxCell>
        <mxCell id="VoKVurm5gyyOJxLy-Uc7-182" value="A9" style="rhombus;whiteSpace=wrap;html=1;fillColor=#000000;fontColor=#FFFFFF;" vertex="1" parent="1">
          <mxGeometry x="800" y="280" width="40" height="40" as="geometry" />
        </mxCell>
        <mxCell id="VoKVurm5gyyOJxLy-Uc7-183" value="B1" style="rhombus;whiteSpace=wrap;html=1;fillColor=#000000;fontColor=#ffffff;" vertex="1" parent="1">
          <mxGeometry x="800" y="340" width="40" height="40" as="geometry" />
        </mxCell>
        <mxCell id="VoKVurm5gyyOJxLy-Uc7-184" value="A7" style="rhombus;whiteSpace=wrap;html=1;fillColor=#000000;fontColor=#ffffff;" vertex="1" parent="1">
          <mxGeometry x="800" y="400" width="40" height="40" as="geometry" />
        </mxCell>
        <mxCell id="VoKVurm5gyyOJxLy-Uc7-185" value="A6" style="rhombus;whiteSpace=wrap;html=1;fillColor=#000000;fontColor=#ffffff;" vertex="1" parent="1">
          <mxGeometry x="800" y="460" width="40" height="40" as="geometry" />
        </mxCell>
        <mxCell id="VoKVurm5gyyOJxLy-Uc7-186" value="A5" style="rhombus;whiteSpace=wrap;html=1;fillColor=#000000;fontColor=#ffffff;" vertex="1" parent="1">
          <mxGeometry x="800" y="520" width="40" height="40" as="geometry" />
        </mxCell>
        <mxCell id="VoKVurm5gyyOJxLy-Uc7-187" value="5V" style="rhombus;whiteSpace=wrap;html=1;fillColor=#000000;fontColor=#ffffff;" vertex="1" parent="1">
          <mxGeometry x="800" y="580" width="40" height="40" as="geometry" />
        </mxCell>
        <mxCell id="VoKVurm5gyyOJxLy-Uc7-188" value="A4" style="rhombus;whiteSpace=wrap;html=1;fillColor=#000000;fontColor=#ffffff;" vertex="1" parent="1">
          <mxGeometry x="520" y="520" width="40" height="40" as="geometry" />
        </mxCell>
        <mxCell id="VoKVurm5gyyOJxLy-Uc7-189" value="GND" style="rhombus;whiteSpace=wrap;html=1;fillColor=#000000;fontColor=#ffffff;" vertex="1" parent="1">
          <mxGeometry x="520" y="580" width="40" height="40" as="geometry" />
        </mxCell>
        <mxCell id="VoKVurm5gyyOJxLy-Uc7-190" value="MISO" style="rhombus;whiteSpace=wrap;html=1;fillColor=#000000;fontColor=#FFFFFF;" vertex="1" parent="1">
          <mxGeometry x="300" y="40" width="40" height="40" as="geometry" />
        </mxCell>
        <mxCell id="VoKVurm5gyyOJxLy-Uc7-191" value="SCK" style="rhombus;whiteSpace=wrap;html=1;fillColor=#000000;fontColor=#ffffff;" vertex="1" parent="1">
          <mxGeometry x="300" y="100" width="40" height="40" as="geometry" />
        </mxCell>
        <mxCell id="VoKVurm5gyyOJxLy-Uc7-192" value="CE" style="rhombus;whiteSpace=wrap;html=1;fillColor=#000000;fontColor=#ffffff;" vertex="1" parent="1">
          <mxGeometry x="300" y="160" width="40" height="40" as="geometry" />
        </mxCell>
        <mxCell id="VoKVurm5gyyOJxLy-Uc7-193" value="GND" style="rhombus;whiteSpace=wrap;html=1;fillColor=#000000;fontColor=#ffffff;" vertex="1" parent="1">
          <mxGeometry x="300" y="220" width="40" height="40" as="geometry" />
        </mxCell>
        <mxCell id="VoKVurm5gyyOJxLy-Uc7-194" value="IRQ" style="rhombus;whiteSpace=wrap;html=1;fillColor=#000000;fontColor=#FFFFFF;" vertex="1" parent="1">
          <mxGeometry x="240" y="40" width="40" height="40" as="geometry" />
        </mxCell>
        <mxCell id="VoKVurm5gyyOJxLy-Uc7-195" value="MOSI" style="rhombus;whiteSpace=wrap;html=1;fillColor=#000000;fontColor=#ffffff;" vertex="1" parent="1">
          <mxGeometry x="240" y="100" width="40" height="40" as="geometry" />
        </mxCell>
        <mxCell id="VoKVurm5gyyOJxLy-Uc7-196" value="CSN" style="rhombus;whiteSpace=wrap;html=1;fillColor=#000000;fontColor=#ffffff;" vertex="1" parent="1">
          <mxGeometry x="240" y="160" width="40" height="40" as="geometry" />
        </mxCell>
        <mxCell id="VoKVurm5gyyOJxLy-Uc7-197" value="3.3V" style="rhombus;whiteSpace=wrap;html=1;fillColor=#000000;fontColor=#ffffff;" vertex="1" parent="1">
          <mxGeometry x="240" y="220" width="40" height="40" as="geometry" />
        </mxCell>
        <mxCell id="VoKVurm5gyyOJxLy-Uc7-209" value="" style="edgeStyle=orthogonalEdgeStyle;rounded=0;orthogonalLoop=1;jettySize=auto;html=1;endArrow=none;endFill=0;strokeWidth=3;entryX=1;entryY=0.5;entryDx=0;entryDy=0;" edge="1" parent="1" target="VoKVurm5gyyOJxLy-Uc7-22">
          <mxGeometry relative="1" as="geometry">
            <mxPoint x="260" y="530" as="sourcePoint" />
            <mxPoint x="308.5" y="610" as="targetPoint" />
            <Array as="points">
              <mxPoint x="260" y="640" />
            </Array>
          </mxGeometry>
        </mxCell>
        <mxCell id="VoKVurm5gyyOJxLy-Uc7-210" value="" style="edgeStyle=orthogonalEdgeStyle;rounded=0;orthogonalLoop=1;jettySize=auto;html=1;endArrow=none;endFill=0;strokeWidth=3;entryX=1;entryY=0.5;entryDx=0;entryDy=0;" edge="1" parent="1" target="VoKVurm5gyyOJxLy-Uc7-135">
          <mxGeometry relative="1" as="geometry">
            <mxPoint x="380" y="530" as="sourcePoint" />
            <mxPoint x="360" y="640" as="targetPoint" />
            <Array as="points">
              <mxPoint x="380" y="641" />
            </Array>
          </mxGeometry>
        </mxCell>
        <mxCell id="VoKVurm5gyyOJxLy-Uc7-212" value="" style="edgeStyle=orthogonalEdgeStyle;rounded=0;orthogonalLoop=1;jettySize=auto;html=1;endArrow=none;endFill=0;strokeWidth=3;entryX=0;entryY=0.5;entryDx=0;entryDy=0;exitX=0;exitY=0.5;exitDx=0;exitDy=0;" edge="1" parent="1" source="VoKVurm5gyyOJxLy-Uc7-43" target="VoKVurm5gyyOJxLy-Uc7-6">
          <mxGeometry relative="1" as="geometry">
            <mxPoint x="450" y="60" as="sourcePoint" />
            <mxPoint x="415" y="280" as="targetPoint" />
            <Array as="points">
              <mxPoint x="450" y="60" />
              <mxPoint x="450" y="270" />
              <mxPoint x="190" y="270" />
              <mxPoint x="190" y="240" />
            </Array>
          </mxGeometry>
        </mxCell>
        <mxCell id="VoKVurm5gyyOJxLy-Uc7-213" value="" style="edgeStyle=orthogonalEdgeStyle;rounded=0;orthogonalLoop=1;jettySize=auto;html=1;endArrow=none;endFill=0;strokeWidth=3;entryX=0;entryY=0.5;entryDx=0;entryDy=0;exitX=1;exitY=0.5;exitDx=0;exitDy=0;" edge="1" parent="1" source="VoKVurm5gyyOJxLy-Uc7-10" target="VoKVurm5gyyOJxLy-Uc7-52">
          <mxGeometry relative="1" as="geometry">
            <mxPoint x="435" y="548" as="sourcePoint" />
            <mxPoint x="415" y="658" as="targetPoint" />
            <Array as="points">
              <mxPoint x="410" y="240" />
              <mxPoint x="410" y="600" />
            </Array>
          </mxGeometry>
        </mxCell>
        <mxCell id="VoKVurm5gyyOJxLy-Uc7-214" value="" style="rounded=1;whiteSpace=wrap;html=1;" vertex="1" parent="1">
          <mxGeometry x="520" y="759.5" width="80" height="40" as="geometry" />
        </mxCell>
        <mxCell id="VoKVurm5gyyOJxLy-Uc7-215" value="" style="rounded=1;whiteSpace=wrap;html=1;" vertex="1" parent="1">
          <mxGeometry x="520" y="819.5" width="80" height="40" as="geometry" />
        </mxCell>
        <mxCell id="VoKVurm5gyyOJxLy-Uc7-216" value="" style="rounded=1;whiteSpace=wrap;html=1;" vertex="1" parent="1">
          <mxGeometry x="520" y="879.5" width="80" height="40" as="geometry" />
        </mxCell>
        <mxCell id="VoKVurm5gyyOJxLy-Uc7-217" value="" style="rounded=1;whiteSpace=wrap;html=1;" vertex="1" parent="1">
          <mxGeometry x="520" y="939.5" width="80" height="40" as="geometry" />
        </mxCell>
        <mxCell id="VoKVurm5gyyOJxLy-Uc7-218" value="" style="ellipse;whiteSpace=wrap;html=1;aspect=fixed;fillColor=#1ba1e2;strokeColor=#006EAF;fontColor=#ffffff;" vertex="1" parent="1">
          <mxGeometry x="522" y="762.5" width="35" height="35" as="geometry" />
        </mxCell>
        <mxCell id="VoKVurm5gyyOJxLy-Uc7-219" value="" style="ellipse;whiteSpace=wrap;html=1;aspect=fixed;fillColor=#1ba1e2;strokeColor=#006EAF;fontColor=#ffffff;" vertex="1" parent="1">
          <mxGeometry x="522" y="823" width="35" height="35" as="geometry" />
        </mxCell>
        <mxCell id="VoKVurm5gyyOJxLy-Uc7-220" value="" style="ellipse;whiteSpace=wrap;html=1;aspect=fixed;fillColor=#1ba1e2;strokeColor=#006EAF;fontColor=#ffffff;" vertex="1" parent="1">
          <mxGeometry x="522" y="883" width="35" height="35" as="geometry" />
        </mxCell>
        <mxCell id="VoKVurm5gyyOJxLy-Uc7-221" value="" style="ellipse;whiteSpace=wrap;html=1;aspect=fixed;fillColor=#1ba1e2;strokeColor=#006EAF;fontColor=#ffffff;" vertex="1" parent="1">
          <mxGeometry x="522" y="941.5" width="35" height="35" as="geometry" />
        </mxCell>
        <mxCell id="VoKVurm5gyyOJxLy-Uc7-222" value="B1" style="rhombus;whiteSpace=wrap;html=1;fillColor=#000000;fontColor=#ffffff;" vertex="1" parent="1">
          <mxGeometry x="560" y="759.5" width="40" height="40" as="geometry" />
        </mxCell>
        <mxCell id="VoKVurm5gyyOJxLy-Uc7-223" value="A7" style="rhombus;whiteSpace=wrap;html=1;fillColor=#000000;fontColor=#ffffff;" vertex="1" parent="1">
          <mxGeometry x="560" y="819.5" width="40" height="40" as="geometry" />
        </mxCell>
        <mxCell id="VoKVurm5gyyOJxLy-Uc7-224" value="A6" style="rhombus;whiteSpace=wrap;html=1;fillColor=#000000;fontColor=#ffffff;" vertex="1" parent="1">
          <mxGeometry x="560" y="879.5" width="40" height="40" as="geometry" />
        </mxCell>
        <mxCell id="VoKVurm5gyyOJxLy-Uc7-225" value="A5" style="rhombus;whiteSpace=wrap;html=1;fillColor=#000000;fontColor=#ffffff;" vertex="1" parent="1">
          <mxGeometry x="560" y="939.5" width="40" height="40" as="geometry" />
        </mxCell>
        <mxCell id="VoKVurm5gyyOJxLy-Uc7-227" value="" style="endArrow=none;html=1;rounded=0;exitX=1;exitY=0.5;exitDx=0;exitDy=0;edgeStyle=orthogonalEdgeStyle;strokeWidth=3;entryX=-0.027;entryY=0.47;entryDx=0;entryDy=0;entryPerimeter=0;" edge="1" parent="1" source="VoKVurm5gyyOJxLy-Uc7-7" target="VoKVurm5gyyOJxLy-Uc7-44">
          <mxGeometry width="50" height="50" relative="1" as="geometry">
            <mxPoint x="392" y="100" as="sourcePoint" />
            <mxPoint x="442" y="50" as="targetPoint" />
            <Array as="points">
              <mxPoint x="410" y="60" />
              <mxPoint x="410" y="120" />
              <mxPoint x="478" y="120" />
            </Array>
          </mxGeometry>
        </mxCell>
        <mxCell id="VoKVurm5gyyOJxLy-Uc7-230" value="" style="endArrow=none;html=1;rounded=0;exitX=1;exitY=0.5;exitDx=0;exitDy=0;edgeStyle=orthogonalEdgeStyle;strokeWidth=3;entryX=0;entryY=0.5;entryDx=0;entryDy=0;" edge="1" parent="1" source="VoKVurm5gyyOJxLy-Uc7-113" target="VoKVurm5gyyOJxLy-Uc7-47">
          <mxGeometry width="50" height="50" relative="1" as="geometry">
            <mxPoint x="380" y="198" as="sourcePoint" />
            <mxPoint x="442" y="188" as="targetPoint" />
            <Array as="points">
              <mxPoint x="390" y="181" />
              <mxPoint x="390" y="198" />
              <mxPoint x="470" y="198" />
              <mxPoint x="470" y="300" />
            </Array>
          </mxGeometry>
        </mxCell>
        <mxCell id="VoKVurm5gyyOJxLy-Uc7-231" value="" style="endArrow=none;html=1;rounded=0;exitX=1;exitY=0.5;exitDx=0;exitDy=0;edgeStyle=orthogonalEdgeStyle;strokeWidth=3;entryX=0;entryY=0.5;entryDx=0;entryDy=0;" edge="1" parent="1" target="VoKVurm5gyyOJxLy-Uc7-45">
          <mxGeometry width="50" height="50" relative="1" as="geometry">
            <mxPoint x="378" y="120" as="sourcePoint" />
            <mxPoint x="440" y="110" as="targetPoint" />
            <Array as="points">
              <mxPoint x="378" y="121" />
              <mxPoint x="400" y="121" />
              <mxPoint x="400" y="180" />
            </Array>
          </mxGeometry>
        </mxCell>
        <mxCell id="VoKVurm5gyyOJxLy-Uc7-232" value="" style="edgeStyle=orthogonalEdgeStyle;rounded=0;orthogonalLoop=1;jettySize=auto;html=1;endArrow=none;endFill=0;strokeWidth=3;entryX=0;entryY=0.5;entryDx=0;entryDy=0;exitX=0;exitY=0.5;exitDx=0;exitDy=0;" edge="1" parent="1" source="VoKVurm5gyyOJxLy-Uc7-48" target="VoKVurm5gyyOJxLy-Uc7-5">
          <mxGeometry relative="1" as="geometry">
            <mxPoint x="480" y="70" as="sourcePoint" />
            <mxPoint x="200" y="250" as="targetPoint" />
            <Array as="points">
              <mxPoint x="460" y="360" />
              <mxPoint x="460" y="280" />
              <mxPoint x="180" y="280" />
              <mxPoint x="180" y="180" />
            </Array>
          </mxGeometry>
        </mxCell>
        <mxCell id="VoKVurm5gyyOJxLy-Uc7-233" value="" style="edgeStyle=orthogonalEdgeStyle;rounded=0;orthogonalLoop=1;jettySize=auto;html=1;endArrow=none;endFill=0;strokeWidth=3;exitX=0;exitY=0.5;exitDx=0;exitDy=0;" edge="1" parent="1" source="VoKVurm5gyyOJxLy-Uc7-125">
          <mxGeometry relative="1" as="geometry">
            <mxPoint x="480" y="370" as="sourcePoint" />
            <mxPoint x="200" y="120" as="targetPoint" />
            <Array as="points">
              <mxPoint x="450" y="420" />
              <mxPoint x="450" y="290" />
              <mxPoint x="170" y="290" />
              <mxPoint x="170" y="120" />
            </Array>
          </mxGeometry>
        </mxCell>
        <mxCell id="VoKVurm5gyyOJxLy-Uc7-234" value="" style="edgeStyle=orthogonalEdgeStyle;rounded=0;orthogonalLoop=1;jettySize=auto;html=1;endArrow=none;endFill=0;strokeWidth=3;exitX=0;exitY=0.5;exitDx=0;exitDy=0;" edge="1" parent="1" source="VoKVurm5gyyOJxLy-Uc7-126">
          <mxGeometry relative="1" as="geometry">
            <mxPoint x="492" y="430" as="sourcePoint" />
            <mxPoint x="200" y="60" as="targetPoint" />
            <Array as="points">
              <mxPoint x="430" y="480" />
              <mxPoint x="430" y="30" />
              <mxPoint x="180" y="30" />
              <mxPoint x="180" y="60" />
            </Array>
          </mxGeometry>
        </mxCell>
        <mxCell id="VoKVurm5gyyOJxLy-Uc7-235" value="" style="endArrow=none;html=1;rounded=0;exitX=1;exitY=0.5;exitDx=0;exitDy=0;edgeStyle=orthogonalEdgeStyle;strokeWidth=3;entryX=0;entryY=0.5;entryDx=0;entryDy=0;" edge="1" parent="1" target="VoKVurm5gyyOJxLy-Uc7-39">
          <mxGeometry width="50" height="50" relative="1" as="geometry">
            <mxPoint x="241" y="700" as="sourcePoint" />
            <mxPoint x="343" y="760" as="targetPoint" />
            <Array as="points">
              <mxPoint x="241" y="701" />
              <mxPoint x="263" y="701" />
              <mxPoint x="263" y="730" />
              <mxPoint x="690" y="730" />
              <mxPoint x="690" y="540" />
            </Array>
          </mxGeometry>
        </mxCell>
        <mxCell id="VoKVurm5gyyOJxLy-Uc7-236" value="" style="endArrow=none;html=1;rounded=0;exitX=1;exitY=0.5;exitDx=0;exitDy=0;edgeStyle=orthogonalEdgeStyle;strokeWidth=3;entryX=0;entryY=0.5;entryDx=0;entryDy=0;" edge="1" parent="1" target="VoKVurm5gyyOJxLy-Uc7-51">
          <mxGeometry width="50" height="50" relative="1" as="geometry">
            <mxPoint x="360" y="699.5" as="sourcePoint" />
            <mxPoint x="462" y="759.5" as="targetPoint" />
            <Array as="points">
              <mxPoint x="382" y="700" />
              <mxPoint x="462" y="700" />
              <mxPoint x="462" y="540" />
            </Array>
          </mxGeometry>
        </mxCell>
        <mxCell id="VoKVurm5gyyOJxLy-Uc7-237" value="" style="edgeStyle=orthogonalEdgeStyle;rounded=0;orthogonalLoop=1;jettySize=auto;html=1;endArrow=none;endFill=0;strokeWidth=3;entryX=1;entryY=0.5;entryDx=0;entryDy=0;exitX=0;exitY=0.5;exitDx=0;exitDy=0;" edge="1" parent="1" source="VoKVurm5gyyOJxLy-Uc7-130">
          <mxGeometry relative="1" as="geometry">
            <mxPoint x="622" y="670" as="sourcePoint" />
            <mxPoint x="600" y="781" as="targetPoint" />
            <Array as="points">
              <mxPoint x="610" y="481" />
              <mxPoint x="610" y="781" />
            </Array>
          </mxGeometry>
        </mxCell>
        <mxCell id="VoKVurm5gyyOJxLy-Uc7-238" value="" style="edgeStyle=orthogonalEdgeStyle;rounded=0;orthogonalLoop=1;jettySize=auto;html=1;endArrow=none;endFill=0;strokeWidth=3;entryX=1;entryY=0.5;entryDx=0;entryDy=0;exitX=0;exitY=0.5;exitDx=0;exitDy=0;" edge="1" parent="1" source="VoKVurm5gyyOJxLy-Uc7-37" target="VoKVurm5gyyOJxLy-Uc7-223">
          <mxGeometry relative="1" as="geometry">
            <mxPoint x="752" y="469.99" as="sourcePoint" />
            <mxPoint x="590" y="769.99" as="targetPoint" />
            <Array as="points">
              <mxPoint x="630" y="420" />
              <mxPoint x="630" y="840" />
              <mxPoint x="600" y="840" />
            </Array>
          </mxGeometry>
        </mxCell>
        <mxCell id="VoKVurm5gyyOJxLy-Uc7-239" value="" style="edgeStyle=orthogonalEdgeStyle;rounded=0;orthogonalLoop=1;jettySize=auto;html=1;endArrow=none;endFill=0;strokeWidth=3;entryX=1;entryY=0.5;entryDx=0;entryDy=0;exitX=0;exitY=0.5;exitDx=0;exitDy=0;" edge="1" parent="1" source="VoKVurm5gyyOJxLy-Uc7-36" target="VoKVurm5gyyOJxLy-Uc7-224">
          <mxGeometry relative="1" as="geometry">
            <mxPoint x="750" y="360" as="sourcePoint" />
            <mxPoint x="590" y="780" as="targetPoint" />
            <Array as="points">
              <mxPoint x="650" y="360" />
              <mxPoint x="650" y="900" />
              <mxPoint x="600" y="900" />
            </Array>
          </mxGeometry>
        </mxCell>
        <mxCell id="VoKVurm5gyyOJxLy-Uc7-240" value="" style="edgeStyle=orthogonalEdgeStyle;rounded=0;orthogonalLoop=1;jettySize=auto;html=1;endArrow=none;endFill=0;strokeWidth=3;entryX=1;entryY=0.5;entryDx=0;entryDy=0;exitX=0;exitY=0.5;exitDx=0;exitDy=0;" edge="1" parent="1" source="VoKVurm5gyyOJxLy-Uc7-35" target="VoKVurm5gyyOJxLy-Uc7-225">
          <mxGeometry relative="1" as="geometry">
            <mxPoint x="750" y="302.5" as="sourcePoint" />
            <mxPoint x="590" y="842.5" as="targetPoint" />
            <Array as="points">
              <mxPoint x="760" y="303" />
              <mxPoint x="670" y="303" />
              <mxPoint x="670" y="960" />
            </Array>
          </mxGeometry>
        </mxCell>
        <mxCell id="VoKVurm5gyyOJxLy-Uc7-241" value="1K" style="shape=hexagon;perimeter=hexagonPerimeter2;whiteSpace=wrap;html=1;fixedSize=1;" vertex="1" parent="1">
          <mxGeometry x="469.5" y="829.5" width="60" height="20" as="geometry" />
        </mxCell>
        <mxCell id="VoKVurm5gyyOJxLy-Uc7-242" value="1K" style="shape=hexagon;perimeter=hexagonPerimeter2;whiteSpace=wrap;html=1;fixedSize=1;" vertex="1" parent="1">
          <mxGeometry x="469.5" y="769.5" width="60" height="20" as="geometry" />
        </mxCell>
        <mxCell id="VoKVurm5gyyOJxLy-Uc7-243" value="1K" style="shape=hexagon;perimeter=hexagonPerimeter2;whiteSpace=wrap;html=1;fixedSize=1;" vertex="1" parent="1">
          <mxGeometry x="469.5" y="889.5" width="60" height="20" as="geometry" />
        </mxCell>
        <mxCell id="VoKVurm5gyyOJxLy-Uc7-244" value="1K" style="shape=hexagon;perimeter=hexagonPerimeter2;whiteSpace=wrap;html=1;fixedSize=1;" vertex="1" parent="1">
          <mxGeometry x="469.5" y="949" width="60" height="20" as="geometry" />
        </mxCell>
        <mxCell id="VoKVurm5gyyOJxLy-Uc7-245" value="" style="edgeStyle=orthogonalEdgeStyle;rounded=0;orthogonalLoop=1;jettySize=auto;html=1;endArrow=none;endFill=0;strokeWidth=3;entryX=1;entryY=0.5;entryDx=0;entryDy=0;exitX=0;exitY=0.5;exitDx=0;exitDy=0;" edge="1" parent="1" source="VoKVurm5gyyOJxLy-Uc7-31">
          <mxGeometry relative="1" as="geometry">
            <mxPoint x="380" y="849.5" as="sourcePoint" />
            <mxPoint x="358" y="960.5" as="targetPoint" />
            <Array as="points">
              <mxPoint x="590" y="60" />
              <mxPoint x="590" y="750" />
              <mxPoint x="380" y="750" />
              <mxPoint x="380" y="961" />
            </Array>
          </mxGeometry>
        </mxCell>
        <mxCell id="VoKVurm5gyyOJxLy-Uc7-248" value="" style="edgeStyle=orthogonalEdgeStyle;rounded=0;orthogonalLoop=1;jettySize=auto;html=1;endArrow=none;endFill=0;strokeWidth=3;entryX=1;entryY=0.5;entryDx=0;entryDy=0;" edge="1" parent="1">
          <mxGeometry relative="1" as="geometry">
            <mxPoint x="380" y="782.5" as="sourcePoint" />
            <mxPoint x="357" y="782.5" as="targetPoint" />
            <Array as="points">
              <mxPoint x="360" y="782.5" />
              <mxPoint x="360" y="782.5" />
            </Array>
          </mxGeometry>
        </mxCell>
        <mxCell id="VoKVurm5gyyOJxLy-Uc7-250" value="" style="edgeStyle=orthogonalEdgeStyle;rounded=0;orthogonalLoop=1;jettySize=auto;html=1;endArrow=none;endFill=0;strokeWidth=3;entryX=1;entryY=0.5;entryDx=0;entryDy=0;" edge="1" parent="1">
          <mxGeometry relative="1" as="geometry">
            <mxPoint x="380" y="842.5" as="sourcePoint" />
            <mxPoint x="357" y="842.5" as="targetPoint" />
            <Array as="points">
              <mxPoint x="360" y="842.5" />
              <mxPoint x="360" y="842.5" />
            </Array>
          </mxGeometry>
        </mxCell>
        <mxCell id="VoKVurm5gyyOJxLy-Uc7-252" value="" style="edgeStyle=orthogonalEdgeStyle;rounded=0;orthogonalLoop=1;jettySize=auto;html=1;endArrow=none;endFill=0;strokeWidth=3;entryX=1;entryY=0.5;entryDx=0;entryDy=0;" edge="1" parent="1">
          <mxGeometry relative="1" as="geometry">
            <mxPoint x="380" y="902.5" as="sourcePoint" />
            <mxPoint x="357" y="902.5" as="targetPoint" />
            <Array as="points">
              <mxPoint x="360" y="902.5" />
              <mxPoint x="360" y="902.5" />
            </Array>
          </mxGeometry>
        </mxCell>
      </root>
    </mxGraphModel>
  </diagram>
</mxfile>
